<?xml version="1.0" encoding="utf-8"?>
<!-- Generator: Adobe Illustrator 23.1.0, SVG Export Plug-In . SVG Version: 6.00 Build 0)  -->
<svg version="1.1" id="Layer_1" xmlns="http://www.w3.org/2000/svg" xmlns:xlink="http://www.w3.org/1999/xlink" x="0px" y="0px"
	 viewBox="0 0 600 776" style="enable-background:new 0 0 600 776;" xml:space="preserve">
<defs>
	<linearGradient id="brand" gradientUnits="userSpaceOnUse" x1="3000" y1="6200" x2="3000" y2="3400">
		<stop offset="0" stop-color="#00DF81"/>
		<stop offset="1" stop-color="#2FA98C"/>
	</linearGradient>
</defs>
<style type="text/css">
	path { fill: url(#brand); }
</style>
<g transform="translate(0.000000,776.000000) scale(0.100000,-0.100000)">
	
		<linearGradient id="SVGID_1_" gradientUnits="userSpaceOnUse" x1="55453.7422" y1="58367.4648" x2="55453.7422" y2="53900.5" gradientTransform="matrix(0.1 0 0 0.1 -2655 362.8901)">
		<stop  offset="0" style="stop-color:#00DF81"/>
		<stop  offset="1" style="stop-color:#2FA98C"/>
	</linearGradient>
	<path class="st0" d="M3062,6148.6c-19.2-38.8-47.9-71.4-65.2-71.4c-19.2,0-21.1-6.1-7.7-16.3c15.3-10.2,15.3-34.7-3.8-85.7
		c-21.1-61.2-24.9-63.2-24.9-22.4c-1.9,63.2-23,42.8-30.7-32.6c-7.7-59.2-65.2-240.7-92-287.6c-9.6-14.3-23-20.4-30.7-14.3
		c-9.6,4.1-13.4-14.3-9.6-40.8c1.9-28.6-1.9-51-11.5-51c-7.7,0-21.1-14.3-26.8-32.6c-5.8-16.3-3.8-24.5,7.7-18.4
		c11.5,6.1,13.4-2,7.7-18.4c-5.8-18.4-21.1-26.5-32.6-18.4c-11.5,8.2-15.3,0-7.7-20.4c11.5-34.7-51.8-195.8-67.1-165.2
		c-5.8,10.2-5.8,6.1-1.9-10.2c3.8-16.3-1.9-34.7-11.5-40.8c-9.6-6.1-21.1-30.6-24.9-53c-1.9-22.4-9.6-44.9-15.3-51
		c-17.3-16.3-65.2-130.5-61.4-146.9c5.8-22.4-86.3-220.3-95.9-210.1c-5.8,6.1-9.6-2-9.6-16.3c0-42.8-105.4-308-138-348.8
		c-17.3-20.4-28.8-40.8-24.9-44.9c11.5-20.4,1.9-49-17.3-49c-9.6,0-13.4,8.2-7.7,20.4c7.7,12.2-3.8,14.3-32.6,2
		c-24.9-8.2-65.2-10.2-92,0c-63.3,22.4-487,55.1-584.7,44.9c-151.5-14.3-345.1-51-368.1-71.4c-13.4-10.2-42.2-14.3-67.1-8.2
		s-32.6,6.1-19.2,0c40.3-20.4,24.9-44.9-32.6-59.2c-30.7-6.1-80.5-34.7-109.3-61.2c-28.8-26.5-61.4-42.8-70.9-36.7
		c-11.5,6.1-13.4,2-7.7-8.2c7.7-12.2,0-26.5-15.3-34.7c-15.3-6.1-28.8-20.4-28.8-32.6c0-12.2,36.4,4.1,82.4,36.7
		c101.6,73.4,224.3,132.6,370,181.5c138,44.9,625,49,851.2,8.2c180.2-34.7,517.6-161.1,719-273.3
		c523.4-287.6,628.8-334.5,1004.6-442.6c329.8-95.9,387.3-106.1,510-97.9c115,8.2,163,22.4,270.3,87.7
		c72.9,40.8,172.5,110.1,222.4,153l90.1,75.5l-42.2,38.8c-40.3,38.8-40.3,38.8-13.4,0c21.1-28.6,23-40.8,5.8-46.9
		c-13.4-4.1-55.6-36.7-93.9-69.4c-55.6-46.9-76.7-55.1-90.1-34.7c-13.4,20.4-15.3,18.4-7.7-6.1c13.4-46.9-97.8-116.3-124.6-77.5
		c-15.3,22.4-17.3,22.4-9.6-4.1c7.7-24.5-17.3-38.8-109.3-65.3c-118.9-32.6-203.2-28.6-203.2,12.2c0,12.2-13.4,4.1-30.7-18.4
		c-15.3-20.4-24.9-26.5-17.3-12.2c5.8,12.2,1.9,24.5-9.6,24.5s-15.3,10.2-9.6,22.4c7.7,10.2-1.9,38.8-21.1,61.2
		c-17.3,20.4-26.8,44.9-21.1,53c7.7,6.1,5.8,22.4-3.8,34.7c-7.7,12.2-30.7,73.4-49.8,134.6c-19.2,61.2-42.2,122.4-51.8,136.7
		c-9.6,14.3-13.4,44.9-5.8,71.4c7.7,32.6,5.8,38.8-5.8,18.4c-9.6-14.3-23-18.4-28.8-10.2c-11.5,22.4-51.8,179.5-65.2,252.9
		c-3.8,28.6-15.3,59.2-26.8,71.4c-24.9,26.5-21.1,77.5,5.8,59.2c13.4-8.2,15.3-6.1,7.7,10.2c-7.7,12.2-23,18.4-32.6,12.2
		c-9.6-8.2-23,4.1-28.8,24.5c-7.7,20.4-28.8,75.5-49.8,122.4c-57.5,132.6-72.9,201.9-47.9,230.5c17.3,20.4,17.3,22.4,0,12.2
		c-13.4-8.2-26.8,12.2-34.5,53c-7.7,36.7-24.9,81.6-38.3,97.9c-13.4,16.3-30.7,59.2-38.3,91.8c-19.2,75.5-17.3,65.3-47.9,167.3
		c-13.4,46.9-32.6,81.6-44.1,73.4c-11.5-8.2-15.3,18.4-7.7,67.3c5.8,42.8,5.8,61.2,0,40.8c-7.7-32.6-15.3-24.5-36.4,40.8
		c-15.3,42.8-26.8,108.1-28.8,140.7c0,51-3.8,55.1-15.3,20.4c-13.4-34.7-17.3-30.6-24.9,24.5c-3.8,36.7,0,79.5,7.7,97.9
		c9.6,16.3,13.4,53,9.6,77.5c-7.7,36.7-7.7,36.7-11.5-10.2c-1.9-71.4-40.3-75.5-40.3-6.1c0,28.6-7.7,51-19.2,51
		c-9.6,0-19.2,18.4-19.2,40.8c0,22.4-9.6,40.8-23,40.8c-11.5,0-17.3,6.1-9.6,12.2c5.8,8.2,0,36.7-15.3,67.3
		c-19.2,40.8-21.1,65.3-3.8,93.8c19.2,38.8,17.3,38.8-15.3,10.2c-30.7-26.5-34.5-26.5-24.9,0c13.4,42.8-65.2,102-134.2,102
		C3109.9,6220,3090.7,6205.8,3062,6148.6z M3265.2,6093.6c21.1-49,82.4-220.3,136.1-383.5s132.3-395.7,174.5-520.1
		c203.2-609.9,540.7-1537.9,554.1-1527.7c9.6,6.1,11.5-4.1,5.8-20.4c-5.8-16.3,3.8-59.2,21.1-95.9c30.7-61.2,30.7-65.3-3.8-55.1
		c-19.2,6.1-180.2,55.1-360.4,108.1c-178.3,51-331.7,102-339.3,108.1c-7.7,8.2-65.2,171.3-128.5,361
		c-105.4,318.2-245.4,734.3-293.3,873c-28.8,83.6-59.4,67.3-103.5-61.2c-207.1-605.8-268.4-758.8-295.3-748.6
		c-15.3,8.2-93.9,36.7-172.5,67.3c-78.6,30.6-141.9,65.3-140,77.5c3.8,14.3,130.4,324.3,283.7,689.4
		c153.4,367.1,299.1,720,325.9,783.2c24.9,63.2,74.8,185.6,113.1,273.3c63.3,144.8,72.9,157.1,126.5,157.1
		C3219.2,6179.2,3232.6,6167,3265.2,6093.6z M3035.1,4812.6c0-16.3,13.4-57.1,30.7-91.8c17.3-32.6,30.7-81.6,30.7-106.1
		c-1.9-26.5,5.8-46.9,15.3-46.9c11.5,0,19.2-16.3,19.2-36.7c0-20.4,17.3-71.4,38.3-116.3s32.6-97.9,26.8-118.3
		c-7.7-28.6-5.8-34.7,11.5-24.5c17.3,10.2,19.2,2,9.6-30.6c-9.6-30.6-7.7-40.8,7.7-32.6c11.5,8.2,21.1,8.2,23-2
		c3.8-38.8,17.3-85.7,61.4-199.9c24.9-67.3,42.2-132.6,38.3-146.9c-3.8-12.2,1.9-28.6,11.5-36.7c36.4-22.4,24.9-71.4-11.5-57.1
		c-19.2,8.2-38.3,18.4-44.1,26.5c-5.8,6.1-47.9,28.6-93.9,51c-47.9,22.4-101.6,57.1-120.8,79.5c-19.2,22.4-34.5,30.6-34.5,16.3
		c0-12.2-13.4-18.4-28.8-12.2c-15.3,8.2-24.9,20.4-19.2,28.6c5.8,10.2,1.9,22.4-9.6,30.6c-9.6,6.1-19.2,2-19.2-12.2
		c0-18.4-9.6-16.3-32.6,6.1c-19.2,16.3-70.9,46.9-115,67.3c-74.8,32.6-92,53-84.4,95.9c0,8.2-11.5,10.2-26.8,2
		c-26.8-10.2-26.8-4.1,0,46.9c30.7,63.2,72.9,171.3,74.8,197.9c1.9,8.2,23,38.8,47.9,67.3c30.7,32.6,34.5,44.9,13.4,36.7
		c-26.8-10.2-24.9,8.2,17.3,126.5c53.7,150.9,76.7,191.7,63.3,106.1c-5.8-30.6-1.9-51,5.8-44.9c9.6,6.1,17.3,46.9,17.3,91.8
		c0,42.8,7.7,79.5,17.3,79.5c9.6,0,13.4,20.4,7.7,46.9c-7.7,42.8-5.8,42.8,21.1-6.1C3019.8,4865.7,3033.2,4829,3035.1,4812.6z"/>
	
		<linearGradient id="SVGID_2_" gradientUnits="userSpaceOnUse" x1="59102.3398" y1="58367.4648" x2="59102.3398" y2="53900.5" gradientTransform="matrix(0.1 0 0 0.1 -2655 362.8901)">
		<stop  offset="0" style="stop-color:#00DF81"/>
		<stop  offset="1" style="stop-color:#2FA98C"/>
	</linearGradient>
	<path class="st1" d="M3247.9,5922.2c0-22.4,5.8-28.6,11.5-12.2c5.8,14.3,3.8,32.6-1.9,38.8
		C3251.8,5956.9,3246,5944.7,3247.9,5922.2z"/>
	
		<linearGradient id="SVGID_3_" gradientUnits="userSpaceOnUse" x1="52008.6641" y1="58367.4648" x2="52008.6641" y2="53900.5" gradientTransform="matrix(0.1 0 0 0.1 -2655 362.8901)">
		<stop  offset="0" style="stop-color:#00DF81"/>
		<stop  offset="1" style="stop-color:#2FA98C"/>
	</linearGradient>
	<path class="st2" d="M2538.6,4637.2c0-22.4,5.8-28.6,11.5-12.2c5.8,14.3,3.8,32.6-1.9,38.8
		C2542.4,4671.9,2536.6,4659.7,2538.6,4637.2z"/>
	
		<linearGradient id="SVGID_4_" gradientUnits="userSpaceOnUse" x1="55092.3633" y1="58367.4648" x2="55092.3633" y2="53900.5" gradientTransform="matrix(0.1 0 0 0.1 -2655 362.8901)">
		<stop  offset="0" style="stop-color:#00DF81"/>
		<stop  offset="1" style="stop-color:#2FA98C"/>
	</linearGradient>
	<path class="st3" d="M2843.4,4078.3c-17.3-12.2-19.2-20.4-5.8-20.4c11.5,0,28.8,10.2,34.5,20.4
		C2887.5,4102.8,2879.8,4102.8,2843.4,4078.3z"/>
	
		<linearGradient id="SVGID_5_" gradientUnits="userSpaceOnUse" x1="59428.0273" y1="58367.4648" x2="59428.0273" y2="53900.5" gradientTransform="matrix(0.1 0 0 0.1 -2655 362.8901)">
		<stop  offset="0" style="stop-color:#00DF81"/>
		<stop  offset="1" style="stop-color:#2FA98C"/>
	</linearGradient>
	<path class="st4" d="M3274.8,6199.6c5.8-10.2,15.3-20.4,21.1-20.4c3.8,0,7.7,10.2,7.7,20.4c0,12.2-9.6,20.4-21.1,20.4
		C3272.9,6220,3269,6211.9,3274.8,6199.6z"/>
	
		<linearGradient id="SVGID_6_" gradientUnits="userSpaceOnUse" x1="62936.7578" y1="58367.4648" x2="62936.7578" y2="53900.5" gradientTransform="matrix(0.1 0 0 0.1 -2655 362.8901)">
		<stop  offset="0" style="stop-color:#00DF81"/>
		<stop  offset="1" style="stop-color:#2FA98C"/>
	</linearGradient>
	<path class="st5" d="M3631.4,5391.9c0-22.4,5.8-28.6,11.5-12.2c5.8,14.3,3.8,32.6-1.9,38.8
		C3635.2,5426.6,3629.5,5414.3,3631.4,5391.9z"/>
	
		<linearGradient id="SVGID_7_" gradientUnits="userSpaceOnUse" x1="73798.5" y1="58367.4648" x2="73798.5" y2="53900.5" gradientTransform="matrix(0.1 0 0 0.1 -2655 362.8901)">
		<stop  offset="0" style="stop-color:#00DF81"/>
		<stop  offset="1" style="stop-color:#2FA98C"/>
	</linearGradient>
	<path class="st6" d="M4655.2,4869.7c-13.4-10.2-46-14.3-70.9-12.2c-65.2,4.1-245.4-44.9-245.4-69.4c0-12.2-13.4-16.3-28.8-10.2
		c-15.3,8.2-32.6,4.1-40.3-8.2c-5.8-12.2-24.9-16.3-40.3-10.2c-15.3,6.1-23,4.1-17.3-4.1c5.8-10.2-34.5-44.9-90.1-79.5
		c-55.6-32.6-97.8-71.4-93.9-85.7c1.9-14.3-9.6-22.4-26.8-18.4c-19.2,4.1-34.5-8.2-36.4-30.6c-5.8-30.6,0-30.6,49.8,8.2
		c30.7,22.4,55.6,51,55.6,63.2s5.8,16.3,11.5,10.2c7.7-6.1,32.6,4.1,59.4,26.5c95.9,79.5,331.7,165.2,513.8,187.7
		c168.7,18.4,189.8,16.3,345.1-34.7c141.9-44.9,178.3-67.3,260.7-155c126.5-132.6,166.8-234.6,189.8-479.3
		c11.5-108.1,24.9-204,30.7-210.1c7.7-6.1,5.8,42.8,0,110.1c-7.7,67.3-13.4,171.3-15.3,230.5c-3.8,57.1-11.5,106.1-19.2,106.1
		c-7.7,0-15.3,18.4-15.3,40.8c0,22.4-9.6,40.8-21.1,40.8c-9.6,0-13.4,8.2-7.7,20.4c5.8,10.2-9.6,38.8-36.4,63.2
		s-42.2,55.1-36.4,67.3c5.8,12.2,5.8,16.3-3.8,8.2c-7.7-8.2-30.7,6.1-49.8,32.6c-46,63.2-205.1,150.9-302.9,167.3
		c-42.2,8.2-74.8,18.4-70.9,26.5C4914,4890.1,4685.8,4888.1,4655.2,4869.7z"/>
	
		<linearGradient id="SVGID_8_" gradientUnits="userSpaceOnUse" x1="67941.7109" y1="58367.4648" x2="67941.7109" y2="53900.5" gradientTransform="matrix(0.1 0 0 0.1 -2655 362.8901)">
		<stop  offset="0" style="stop-color:#00DF81"/>
		<stop  offset="1" style="stop-color:#2FA98C"/>
	</linearGradient>
	<path class="st7" d="M4124.1,4778c13.4-6.1,30.7-4.1,36.4,2c7.7,6.1-3.8,12.2-24.9,10.2C4114.5,4790.2,4108.8,4784.1,4124.1,4778z"
		/>
	
		<linearGradient id="SVGID_9_" gradientUnits="userSpaceOnUse" x1="55657.1758" y1="58367.4648" x2="55657.1758" y2="53900.5" gradientTransform="matrix(0.1 0 0 0.1 -2655 362.8901)">
		<stop  offset="0" style="stop-color:#00DF81"/>
		<stop  offset="1" style="stop-color:#2FA98C"/>
	</linearGradient>
	<path class="st8" d="M4532.5,4751.4c-111.2-18.4-312.5-102-427.5-177.5c-40.3-26.5-72.9-51-72.9-55.1c0-18.4,105.4,8.2,111.2,28.6
		c7.7,20.4,153.4,97.9,212.8,112.2c17.3,4.1,72.9,20.4,122.7,38.8c134.2,42.8,375.8,28.6,502.3-28.6c32.6-14.3,67.1-28.6,76.7-30.6
		c11.5,0,17.3-12.2,15.3-26.5c-3.8-14.3,5.8-22.4,19.2-18.4c11.5,2,21.1-8.2,17.3-24.5c-3.8-18.4,7.7-24.5,34.5-16.3
		c32.6,8.2,38.3,4.1,28.8-22.4c-5.8-18.4-5.8-26.5,1.9-18.4c24.9,26.5,61.4-26.5,49.8-73.4c-5.8-24.5-1.9-36.7,7.7-28.6
		c9.6,8.2,30.7-30.6,49.8-89.7c24.9-79.5,28.8-114.2,13.4-144.8c-17.3-32.6-15.3-38.8,1.9-26.5c19.2,12.2,21.1,2,11.5-42.8
		c-7.7-32.6-15.3-73.4-19.2-89.7c-13.4-87.7-55.6-181.5-72.9-171.3c-13.4,8.2-15.3,4.1-7.7-8.2c15.3-26.5-26.8-104-105.4-197.9
		c-28.8-32.6-72.9-85.7-97.8-116.3c-26.8-30.6-53.7-49-61.4-40.8s-13.4,4.1-11.5-6.1c9.6-44.9-1.9-55.1-32.6-28.6
		c-30.7,24.5-32.6,24.5-11.5-4.1c19.2-26.5,13.4-36.7-38.3-69.4c-34.5-22.4-72.9-36.7-88.2-34.7c-15.3,4.1-19.2-2-9.6-18.4
		c9.6-18.4,3.8-20.4-23-10.2c-19.2,8.2-28.8,8.2-21.1,0c24.9-26.5-103.5-73.4-132.3-46.9c-13.4,12.2-36.4,18.4-49.8,12.2
		c-15.3-6.1-9.6-12.2,13.4-12.2c28.8-2,32.6-6.1,11.5-26.5c-17.3-18.4-109.3-26.5-324-26.5c-258.8,0-308.7,6.1-352.8,38.8
		c-28.8,20.4-63.3,28.6-74.8,20.4c-13.4-8.2-17.3-6.1-11.5,6.1c7.7,12.2-34.5,32.6-97.8,49c-59.4,14.3-130.4,38.8-157.2,53
		c-26.8,14.3-59.4,26.5-72.9,26.5c-13.4,0-21.1,8.2-13.4,18.4c5.8,12.2-26.8,28.6-70.9,38.8c-46,12.2-65.2,20.4-42.2,22.4
		c53.7,2,161-38.8,161-61.2c0-8.2,13.4-12.2,28.8-6.1c15.3,8.2,28.8,2,28.8-10.2s13.4-16.3,28.8-10.2c15.3,8.2,28.8,4.1,28.8-6.1
		c0-14.3,42.2-26.5,130.4-32.6c11.5,0,23-10.2,23-20.4s21.1-14.3,47.9-10.2c24.9,6.1,49.8,2,53.7-10.2
		c7.7-24.5,364.3-26.5,490.8-4.1c46,8.2,113.1,26.5,147.6,42.8s78.6,22.4,97.8,16.3c26.8-10.2,28.8-8.2,7.7,8.2
		c-21.1,16.3-17.3,22.4,15.3,34.7c24.9,8.2,55.6,2,74.8-12.2c26.8-22.4,28.8-22.4,9.6,2c-30.7,36.7-32.6,69.4-1.9,49
		c11.5-8.2,15.3-6.1,9.6,6.1c-11.5,18.4,30.7,42.8,88.2,55.1c7.7,0,13.4,10.2,11.5,20.4c0,10.2,21.1,32.6,49.8,53
		c26.8,18.4,63.3,55.1,78.6,79.5c17.3,24.5,40.3,36.7,51.8,30.6c13.4-8.2,13.4-2-1.9,14.3c-21.1,24.5-34.5,18.4-82.4-36.7
		c-30.7-36.7-61.4-67.3-67.1-67.3c-5.8,0-44.1-26.5-84.4-61.2c-327.8-275.4-770.7-281.5-1407.2-14.3
		c-86.3,34.7-297.2,138.7-471.6,230.5c-174.5,91.8-381.5,191.7-460.1,222.3c-78.6,30.6-199.4,79.5-268.4,108.1
		c-368.1,148.9-837.8,132.6-1188.7-42.8c-115-57.1-120.8-63.2-69-71.4c36.4-4.1,61.4,4.1,72.9,24.5c9.6,18.4,26.8,32.6,40.3,32.6
		s11.5-8.2-5.8-20.4c-19.2-14.3-21.1-20.4-3.8-20.4c13.4,0,28.8,14.3,34.5,30.6c5.8,16.3,42.2,36.7,80.5,44.9
		c88.2,18.4,84.4,16.3,118.9,32.6c55.6,26.5,299.1,49,464,42.8c120.8-4.1,187.9-18.4,249.2-49c47.9-24.5,67.1-28.6,46-10.2
		c-51.8,42.8-15.3,38.8,80.5-10.2c42.2-22.4,97.8-40.8,118.9-40.8c24.9,0,38.3-10.2,32.6-24.5c-9.6-34.7-65.2-34.7-243.5-2
		c-218.6,40.8-626.9,57.1-661.4,26.5c-15.3-14.3-46-20.4-67.1-14.3c-21.1,6.1-38.3,2-38.3-8.2c0-10.2-15.3-18.4-34.5-18.4
		c-19.2,0-67.1-18.4-107.4-40.8c-42.2-20.4-82.4-34.7-93.9-26.5c-11.5,6.1-13.4,2-5.8-10.2c7.7-14.3,1.9-24.5-17.3-24.5
		c-19.2,0-24.9-10.2-17.3-24.5c9.6-16.3,3.8-18.4-17.3-10.2s-32.6,2-32.6-18.4c0-18.4-9.6-24.5-23-16.3
		c-13.4,10.2-15.3,6.1-5.8-12.2c11.5-20.4,7.7-24.5-17.3-14.3c-17.3,8.2-28.8,6.1-23-4.1c5.8-10.2-1.9-24.5-19.2-30.6
		c-15.3-6.1-23-4.1-17.3,8.2c5.8,12.2,1.9,20.4-7.7,20.4c-11.5,0-21.1-10.2-21.1-22.4c0-32.6-69-120.3-84.4-106.1
		c-5.8,6.1-11.5-8.2-11.5-32.6c0-24.5-7.7-40.8-17.3-34.7c-21.1,14.3-44.1-44.9-28.8-71.4c5.8-10.2,0-16.3-15.3-14.3
		c-13.4,4.1-24.9-8.2-24.9-24.5c0-16.3-5.8-38.8-11.5-51c-7.7-10.2-26.8-67.3-44.1-126.5c-51.8-167.3-30.7-618,28.8-618
		c7.7,0,24.9-40.8,38.3-89.7c13.4-51,32.6-85.7,42.2-79.5c7.7,6.1,13.4-4.1,9.6-22.4c-3.8-18.4,28.8-65.3,70.9-106.1
		c42.2-40.8,67.1-69.4,57.5-63.2c-11.5,6.1-21.1-6.1-21.1-28.6c0-24.5,7.7-30.6,19.2-18.4c26.8,28.6,51.8,26.5,46-4.1
		c-3.8-12.2,28.8-42.8,70.9-69.4c42.2-24.5,88.2-57.1,101.6-69.4s47.9-28.6,76.7-32.6c28.8-6.1,61.4-22.4,72.9-38.8
		c11.5-16.3,24.9-24.5,30.7-18.4c5.8,6.1,40.3-2,74.8-18.4l65.2-28.6l-95.9-30.6c-51.8-18.4-143.8-38.8-201.3-44.9
		c-65.2-6.1-115-24.5-128.5-44.9c-11.5-18.4-30.7-26.5-40.3-20.4s-7.7-20.4,3.8-59.2c11.5-38.8,32.6-75.5,46-81.6s19.2,0,13.4,10.2
		c-5.8,12.2,5.8,20.4,28.8,20.4s36.4-6.1,32.6-14.3c-5.8-10.2,272.2-16.3,617.3-16.3c657.6,0,697.9,6.1,686.4,89.7
		c-9.6,67.3-36.4,87.7-101.6,79.5c-47.9-6.1-65.2,0-65.2,22.4c0,22.4-5.8,24.5-21.1,8.2c-17.3-18.4-34.5-16.3-67.1,8.2
		c-24.9,16.3-46,40.8-46,51c0,12.2,11.5,10.2,28.8-4.1c19.2-18.4,28.8-18.4,28.8-2c0,22.4-23,30.6-84.4,22.4
		c-65.2-6.1-11.5,38.8,70.9,61.2c44.1,12.2,95.9,30.6,116.9,42.8c19.2,12.2,30.7,12.2,23,2c-5.8-12.2,1.9-26.5,19.2-32.6
		c44.1-18.4,59.4-14.3,28.8,6.1c-15.3,10.2-21.1,32.6-15.3,53c7.7,18.4,21.1,26.5,32.6,20.4c9.6-6.1,19.2-2,19.2,8.2
		c0,12.2,11.5,22.4,24.9,22.4c15.3,0,46,24.5,72.9,53c38.3,44.9,21.1,38.8-126.5-40.8c-193.6-106.1-416-157.1-680.6-157.1
		c-184.1,0-270.3,22.4-467.8,128.5c-266.5,142.8-418,346.8-500.4,673.1c-65.2,259,0,571.1,161,789.4c32.6,42.8,51.8,85.7,44.1,93.8
		c-7.7,10.2-3.8,10.2,9.6,2c11.5-6.1,80.5,28.6,151.5,79.5c255,179.5,456.3,228.4,822.5,195.8c404.5-36.7,556-87.7,1265.4-424.3
		c406.4-193.8,807.1-354.9,970.1-393.7c69-16.3,186-22.4,316.3-16.3c264.6,14.3,500.4,97.9,638.4,228.4
		c243.5,228.4,385.4,491.6,400.7,740.4c7.7,136.7,3.8,159.1-53.7,283.5c-34.5,73.4-92,157.1-124.6,185.6
		C5007.9,4727,4758.7,4786.1,4532.5,4751.4z M2279.7,3978.4c-5.8-6.1,5.8-14.3,23-16.3c103.5-10.2,134.2-18.4,124.6-32.6
		c-5.8-10.2,1.9-14.3,15.3-12.2c15.3,4.1,59.4-10.2,101.6-28.6c40.3-18.4,76.7-34.7,82.4-34.7c3.8,0,21.1-14.3,36.4-30.6
		c34.5-34.7,72.9-40.8,53.7-8.2c-5.8,12.2,11.5,6.1,38.3-14.3c38.3-26.5,46-38.8,26.8-51c-36.4-24.5-57.5-22.4-42.2,6.1
		c7.7,14.3,5.8,16.3-7.7,8.2c-24.9-16.3-80.5,10.2-126.5,61.2c-17.3,16.3-30.7,22.4-30.7,10.2c0-14.3-32.6-6.1-76.7,18.4
		c-42.2,22.4-76.7,36.7-76.7,28.6c0-6.1-19.2,0-44.1,18.4c-23,16.3-70.9,36.7-105.4,44.9c-51.8,10.2-59.4,18.4-40.3,42.8
		C2252.9,4015.1,2297,4009,2279.7,3978.4z M2833.8,3731.6c-5.8-10.2-1.9-20.4,11.5-20.4c13.4,0,19.2-4.1,13.4-10.2
		c-5.8-6.1-24.9-4.1-42.2,2c-26.8,10.2-28.8,18.4-7.7,30.6C2841.5,3756.1,2847.2,3756.1,2833.8,3731.6z M3063.9,3621.4l57.5-32.6
		l-51.8,4.1c-28.8,2-46,12.2-42.2,20.4c5.8,10.2-15.3,22.4-47.9,28.6c-32.6,8.2-59.4,22.4-59.4,32.6s-7.7,12.2-19.2,6.1
		c-9.6-6.1-19.2,2-19.2,20.4c0,30.6,7.7,28.6,63.3-8.2C2979.5,3670.4,3033.2,3637.8,3063.9,3621.4z M3217.3,3548
		c-5.8-10.2-23-20.4-34.5-20.4c-13.4,0-11.5,8.2,5.8,20.4C3224.9,3572.5,3232.6,3572.5,3217.3,3548z M3274.8,3507.2
		c5.8-10.2,3.8-20.4-7.7-20.4c-9.6,0-24.9,10.2-30.7,20.4c-5.8,12.2-3.8,20.4,7.7,20.4C3253.7,3527.6,3269,3519.5,3274.8,3507.2z
		 M1967.2,1916.2c55.6-51,82.4-61.2,166.8-61.2c92,0,97.8-4.1,92-44.9c-5.8-42.8-17.3-46.9-101.6-44.9
		c-1121.6,12.2-1255.8,18.4-1246.2,44.9c5.8,16.3,9.6,36.7,9.6,46.9c0,10.2,36.4,18.4,82.4,18.4c44.1,0,134.2,14.3,195.6,32.6
		c138,40.8,322.1,63.2,559.8,67.3C1896.3,1977.4,1904,1975.4,1967.2,1916.2z"/>
	
		<linearGradient id="SVGID_10_" gradientUnits="userSpaceOnUse" x1="72351.2969" y1="58367.4648" x2="72351.2969" y2="53900.5" gradientTransform="matrix(0.1 0 0 0.1 -2655 362.8901)">
		<stop  offset="0" style="stop-color:#00DF81"/>
		<stop  offset="1" style="stop-color:#2FA98C"/>
	</linearGradient>
	<path class="st9" d="M4565.1,4676c13.4-6.1,30.7-4.1,36.4,2c7.7,6.1-3.8,12.2-24.9,10.2C4555.5,4688.2,4549.7,4682.1,4565.1,4676z"
		/>
	
		<linearGradient id="SVGID_11_" gradientUnits="userSpaceOnUse" x1="66427.8125" y1="58367.4648" x2="66427.8125" y2="53900.5" gradientTransform="matrix(0.1 0 0 0.1 -2655 362.8901)">
		<stop  offset="0" style="stop-color:#00DF81"/>
		<stop  offset="1" style="stop-color:#2FA98C"/>
	</linearGradient>
	<path class="st10" d="M3965,4629.1c-5.8-12.2,1.9-14.3,17.3-8.2c34.5,14.3,40.3,28.6,13.4,28.6
		C3984.1,4649.5,3970.7,4641.3,3965,4629.1z"/>
	
		<linearGradient id="SVGID_12_" gradientUnits="userSpaceOnUse" x1="40333.8945" y1="58367.4648" x2="40333.8945" y2="53900.5" gradientTransform="matrix(0.1 0 0 0.1 -2655 362.8901)">
		<stop  offset="0" style="stop-color:#00DF81"/>
		<stop  offset="1" style="stop-color:#2FA98C"/>
	</linearGradient>
	<path class="st11" d="M1363.3,4104.9c13.4-6.1,30.7-4.1,36.4,2c7.7,6.1-3.8,12.2-24.9,10.2C1353.7,4117.1,1348,4111,1363.3,4104.9z
		"/>
	
		<linearGradient id="SVGID_13_" gradientUnits="userSpaceOnUse" x1="46935.1523" y1="58367.4648" x2="46935.1523" y2="53900.5" gradientTransform="matrix(0.1 0 0 0.1 -2655 362.8901)">
		<stop  offset="0" style="stop-color:#00DF81"/>
		<stop  offset="1" style="stop-color:#2FA98C"/>
	</linearGradient>
	<path class="st12" d="M2015.2,4023.3c11.5-4.1,34.5-4.1,47.9,0c11.5,6.1,1.9,10.2-24.9,10.2S2001.7,4029.4,2015.2,4023.3z"/>
	
		<linearGradient id="SVGID_14_" gradientUnits="userSpaceOnUse" x1="57123.6758" y1="58367.4648" x2="57123.6758" y2="53900.5" gradientTransform="matrix(0.1 0 0 0.1 -2655 362.8901)">
		<stop  offset="0" style="stop-color:#00DF81"/>
		<stop  offset="1" style="stop-color:#2FA98C"/>
	</linearGradient>
	<path class="st13" d="M5425.9,3937.6c-15.3-97.9-120.8-324.3-189.8-414.1c-24.9-30.6-72.9-93.8-109.3-140.7
		c-93.9-120.3-324-273.3-508.1-336.6c-444.8-150.9-862.7-57.1-1861.6,414.1c-669.1,318.2-832.1,363.1-1228.9,348.8
		c-256.9-10.2-402.6-53-573.2-169.3c-130.4-87.7-193.6-177.5-253.1-361c-61.4-185.6-67.1-354.9-17.3-493.6
		c46-128.5,153.4-320.2,209-375.3c128.5-128.5,410.3-257,607.8-277.4c184.1-18.4,481.2,22.4,659.5,91.8
		c116.9,44.9,161,69.4,141.9,81.6c-17.3,10.2-82.4-6.1-170.6-42.8c-145.7-59.2-166.8-63.2-140-16.3c9.6,14.3,17.3,30.6,17.3,36.7
		c1.9,6.1,9.6,30.6,17.3,57.1c13.4,40.8,19.2,42.8,46,20.4c28.8-24.5,30.7-22.4,5.8,8.2c-13.4,20.4-19.2,53-13.4,71.4
		c11.5,30.6,15.3,30.6,30.7,6.1c24.9-40.8,24.9-8.2,0,40.8c-13.4,26.5-13.4,42.8,3.8,53c13.4,10.2,15.3,6.1,5.8-12.2
		c-9.6-16.3-7.7-22.4,5.8-12.2c11.5,8.2,15.3,28.6,9.6,46.9c-9.6,24.5-5.8,28.6,13.4,16.3c15.3-10.2,21.1-8.2,13.4,4.1
		c-17.3,28.6,32.6,132.6,53.7,112.2c9.6-8.2,9.6-2,1.9,12.2c-17.3,30.6,3.8,110.1,26.8,95.9c7.7-6.1,21.1,4.1,26.8,22.4
		c5.8,16.3,3.8,24.5-7.7,18.4c-26.8-18.4-24.9-8.2,21.1,99.9c21.1,53,46,89.7,53.7,83.6c9.6-4.1,28.8,6.1,42.2,26.5
		c24.9,30.6,23,32.6-5.8,6.1c-42.2-32.6-42.2-26.5-5.8,67.3c15.3,40.8,38.3,73.4,49.8,73.4c9.6,0,13.4,10.2,5.8,22.4
		c-7.7,16.3,78.6,18.4,306.8,12.2c174.5-4.1,312.5-2,308.7,8.2c-13.4,22.4,30.7,46.9,46,26.5c5.8-10.2,28.8-20.4,49.8-24.5
		c34.5-4.1,92-28.6,293.3-118.3c34.5-16.3,72.9-22.4,84.4-16.3c13.4,10.2,15.3,4.1,5.8-12.2c-11.5-20.4-7.7-24.5,15.3-14.3
		c19.2,6.1,32.6,4.1,32.6-6.1c0-12.2,17.3-20.4,36.4-20.4c28.8,0,40.3-20.4,49.8-81.6c7.7-44.9,19.2-81.6,26.8-81.6
		c5.8,0,11.5-36.7,11.5-79.5c0-59.2,5.8-75.5,21.1-61.2c15.3,12.2,21.1-4.1,17.3-61.2c-1.9-44.9,3.8-91.8,13.4-108.1
		c11.5-18.4,13.4-10.2,5.8,22.4c-9.6,30.6-5.8,42.8,5.8,34.7c9.6-6.1,30.7-61.2,42.2-118.3c13.4-59.2,30.7-116.3,38.3-128.5
		c15.3-20.4,47.9-177.5,40.3-191.7c-3.8-4.1,1.9-14.3,11.5-20.4c9.6-6.1,32.6-59.2,49.8-116.3c17.3-55.1,36.4-116.3,42.2-134.6
		c9.6-22.4-3.8-38.8-42.2-53c-28.8-12.2-42.2-22.4-26.8-22.4c21.1-2,21.1-8.2,0-36.7c-21.1-28.6,36.4,6.1,115,67.3
		c7.7,6.1-318.3,1060.6-345.1,1113.7c-13.4,26.5,15.3,22.4,151.5-30.6c134.2-51,207.1-65.3,373.9-75.5l209-10.2l168.7-397.7
		c218.6-516,233.9-534.4,517.6-634.3c120.8-42.8,205.1-65.3,186-49c-26.8,20.4-28.8,28.6-9.6,36.7c13.4,4.1,9.6,6.1-9.6,2
		c-40.3-6.1-209,53-226.2,81.6c-7.7,10.2-21.1,12.2-32.6,4.1c-11.5-6.1-24.9-4.1-32.6,8.2c-5.8,10.2-28.8,20.4-49.8,20.4
		s-32.6,10.2-26.8,20.4c5.8,12.2,0,20.4-13.4,20.4c-19.2,0-17.3,6.1,3.8,22.4c23,16.3,19.2,18.4-13.4,8.2
		c-34.5-10.2-51.8,8.2-113.1,124.4c-40.3,75.5-74.8,150.9-76.7,169.3c-9.6,67.3-32.6,124.4-49.8,124.4c-11.5,0-15.3,18.4-9.6,42.8
		c5.8,24.5,5.8,36.7,0,30.6c-7.7-6.1-32.6,22.4-55.6,65.3c-49.8,83.6-57.5,116.3-23,93.8c23-16.3,17.3-2-55.6,112.2
		c-23,36.7-40.3,75.5-34.5,83.6c5.8,10.2,0,20.4-13.4,24.5c-11.5,4.1-23,22.4-24.9,38.8c-3.8,22.4,15.3,26.5,84.4,22.4
		c65.2-4.1,80.5,0,59.4,14.3c-24.9,18.4-23,22.4,9.6,22.4c47.9,0,203.2,57.1,233.9,85.7c13.4,12.2,36.4,16.3,53.7,8.2
		c15.3-6.1,26.8,0,23,12.2c-1.9,14.3,23,36.7,53.7,53c32.6,16.3,63.3,38.8,69,51c7.7,10.2,23,12.2,36.4,4.1
		c15.3-10.2,21.1-8.2,13.4,2c-5.8,10.2,36.4,67.3,92,126.5c57.5,59.2,115,134.6,128.5,169.3c13.4,32.6,30.7,59.2,36.4,59.2
		c7.7,0,23,26.5,36.4,61.2c13.4,32.6,30.7,55.1,40.3,49s11.5,2,7.7,16.3c-5.8,16.3,5.8,63.2,26.8,108.1
		c32.6,69.4,38.3,73.4,40.3,32.6c0-26.5,3.8-44.9,9.6-38.8c5.8,6.1,3.8,59.2-5.8,120.3l-15.3,110.1L5425.9,3937.6z M1884.8,3745.9
		c0-8.2,11.5-14.3,24.9-10.2c11.5,2,55.6-2,95.9-12.2c61.4-12.2,69-20.4,51.8-42.8c-13.4-16.3-30.7-24.5-40.3-18.4
		s-11.5-6.1-3.8-24.5c7.7-20.4,3.8-30.6-5.8-22.4c-9.6,6.1-21.1-6.1-23-28.6c-1.9-20.4-3.8-55.1-5.8-73.4
		c-1.9-20.4-19.2-61.2-38.3-91.8c-21.1-28.6-36.4-63.2-36.4-77.5c0-12.2-9.6-16.3-21.1-8.2c-13.4,8.2-13.4-2,1.9-32.6
		s15.3-40.8,1.9-32.6c-13.4,10.2-21.1-6.1-21.1-38.8c0-28.6-7.7-49-15.3-42.8c-7.7,4.1-17.3-10.2-17.3-34.7
		c-3.8-51-65.2-177.5-86.3-177.5c-7.7,0-9.6-14.3-3.8-30.6c7.7-16.3,1.9-30.6-9.6-30.6c-13.4,0-21.1-12.2-17.3-24.5
		c1.9-14.3-24.9-106.1-61.4-206c-44.1-120.3-70.9-169.3-82.4-153c-9.6,18.4-11.5,12.2-5.8-14.3c5.8-22.4-5.8-75.5-26.8-118.3
		c-44.1-85.7-49.8-157.1-15.3-193.8c19.2-20.4,9.6-24.5-42.2-22.4c-88.2,4.1-310.6,77.5-297.2,99.9c5.8,8.2-5.8,12.2-24.9,8.2
		c-17.3-6.1-51.8,8.2-76.7,32.6c-23,24.5-51.8,36.7-65.2,28.6c-13.4-8.2-15.3-6.1-7.7,8.2c7.7,14.3,1.9,24.5-13.4,24.5
		c-32.6,0-141.9,130.5-157.2,189.7c-7.7,30.6-5.8,36.7,5.8,18.4c13.4-22.4,21.1-20.4,30.7,8.2c7.7,20.4,7.7,30.6,0,22.4
		c-7.7-8.2-24.9,2-40.3,22.4c-21.1,30.6-23,30.6-13.4,2c5.8-20.4,1.9-40.8-9.6-49c-13.4-6.1-21.1,4.1-21.1,28.6
		c0,24.5-7.7,42.8-15.3,42.8c-26.8,0-65.2,163.2-70.9,297.8C700,3085,732.6,3291,763.2,3344c7.7,12.2,24.9,18.4,40.3,12.2
		c21.1-8.2,23-2,7.7,26.5c-13.4,28.6-11.5,44.9,9.6,63.2c15.3,14.3,28.8,36.7,28.8,53c0,14.3,19.2,38.8,44.1,51
		c23,14.3,46,30.6,51.8,38.8c21.1,30.6,241.6,128.5,343.2,153C1407.4,3768.3,1884.8,3772.4,1884.8,3745.9z M2231.8,3609.2
		c78.6-34.7,197.5-85.7,266.5-114.2s197.5-83.6,283.7-122.4c88.2-38.8,172.5-69.4,186-69.4c15.3,0,32.6-10.2,40.3-22.4
		c7.7-16.3-80.5-18.4-312.5-8.2l-325.9,16.3l-124.6-303.9c-69-167.3-163-395.7-207.1-507.9c-46-112.2-90.1-212.1-97.8-222.3
		c-19.2-24.5-421.8-26.5-412.2-2c11.5,34.7,186,479.3,299.1,764.9c59.4,150.9,141.9,361,182.1,465.1c42.2,102,76.7,187.7,78.6,187.7
		C2089.9,3670.4,2155.1,3641.8,2231.8,3609.2z M4367.6,2936.1c5.8-10.2,1.9-20.4-7.7-20.4c-11.5,0-21.1,10.2-21.1,20.4
		c0,12.2,3.8,20.4,7.7,20.4C4352.2,2956.5,4361.8,2948.3,4367.6,2936.1z"/>
	
		<linearGradient id="SVGID_15_" gradientUnits="userSpaceOnUse" x1="38800.125" y1="58367.4648" x2="38800.125" y2="53900.5" gradientTransform="matrix(0.1 0 0 0.1 -2655 362.8901)">
		<stop  offset="0" style="stop-color:#00DF81"/>
		<stop  offset="1" style="stop-color:#2FA98C"/>
	</linearGradient>
	<path class="st14" d="M1209.9,3696.9c13.4-6.1,30.7-4.1,36.4,2c7.7,6.1-3.8,12.2-24.9,10.2
		C1200.4,3709.2,1194.6,3703,1209.9,3696.9z"/>
	
		<linearGradient id="SVGID_16_" gradientUnits="userSpaceOnUse" x1="36673.2891" y1="58367.4648" x2="36673.2891" y2="53900.5" gradientTransform="matrix(0.1 0 0 0.1 -2655 362.8901)">
		<stop  offset="0" style="stop-color:#00DF81"/>
		<stop  offset="1" style="stop-color:#2FA98C"/>
	</linearGradient>
	<path class="st15" d="M1012.5,3613.3c-19.2-14.3-34.5-65.3-19.2-65.3c3.8,0,17.3,18.4,28.8,40.8
		C1045.1,3633.7,1043.1,3637.8,1012.5,3613.3z"/>
	
		<linearGradient id="SVGID_17_" gradientUnits="userSpaceOnUse" x1="35285.7695" y1="58367.4648" x2="35285.7695" y2="53900.5" gradientTransform="matrix(0.1 0 0 0.1 -2655 362.8901)">
		<stop  offset="0" style="stop-color:#00DF81"/>
		<stop  offset="1" style="stop-color:#2FA98C"/>
	</linearGradient>
	<path class="st16" d="M864.8,3480.7c-5.8-38.8-3.8-51,7.7-38.8c11.5,12.2,15.3,36.7,11.5,57.1
		C878.3,3527.6,874.4,3523.5,864.8,3480.7z"/>
	
		<linearGradient id="SVGID_18_" gradientUnits="userSpaceOnUse" x1="36199.6055" y1="58367.4648" x2="36199.6055" y2="53900.5" gradientTransform="matrix(0.1 0 0 0.1 -2655 362.8901)">
		<stop  offset="0" style="stop-color:#00DF81"/>
		<stop  offset="1" style="stop-color:#2FA98C"/>
	</linearGradient>
	<path class="st17" d="M945.4,2467c-15.3-10.2-19.2-20.4-9.6-20.4c11.5,0,32.6,10.2,47.9,20.4c15.3,10.2,21.1,20.4,9.6,20.4
		C983.7,2487.4,960.7,2477.2,945.4,2467z"/>
	
		<linearGradient id="SVGID_19_" gradientUnits="userSpaceOnUse" x1="49521.9063" y1="58367.4648" x2="49521.9063" y2="53900.5" gradientTransform="matrix(0.1 0 0 0.1 -2655 362.8901)">
		<stop  offset="0" style="stop-color:#00DF81"/>
		<stop  offset="1" style="stop-color:#2FA98C"/>
	</linearGradient>
	<path class="st18" d="M2277.8,3321.6c-7.7-12.2-7.7-26.5-1.9-32.6c5.8-8.2,11.5-2,11.5,12.2c0,14.3,9.6,18.4,23,10.2
		c13.4-8.2,15.3-6.1,7.7,8.2C2300.8,3350.2,2293.2,3350.2,2277.8,3321.6z"/>
	
		<linearGradient id="SVGID_20_" gradientUnits="userSpaceOnUse" x1="45106.707" y1="58367.4648" x2="45106.707" y2="53900.5" gradientTransform="matrix(0.1 0 0 0.1 -2655 362.8901)">
		<stop  offset="0" style="stop-color:#00DF81"/>
		<stop  offset="1" style="stop-color:#2FA98C"/>
	</linearGradient>
	<path class="st19" d="M1848.4,2312c0-22.4,5.8-28.6,11.5-12.2c5.8,14.3,3.8,32.6-1.9,38.8C1852.2,2346.6,1846.5,2334.4,1848.4,2312
		z"/>
	
		<linearGradient id="SVGID_21_" gradientUnits="userSpaceOnUse" x1="47044.1289" y1="58367.4648" x2="47044.1289" y2="53900.5" gradientTransform="matrix(0.1 0 0 0.1 -2655 362.8901)">
		<stop  offset="0" style="stop-color:#00DF81"/>
		<stop  offset="1" style="stop-color:#2FA98C"/>
	</linearGradient>
	<path class="st20" d="M2034.3,3880.5c13.4-6.1,30.7-4.1,36.4,2c7.7,6.1-3.8,12.2-24.9,10.2
		C2024.8,3892.7,2019,3886.6,2034.3,3880.5z"/>
	
		<linearGradient id="SVGID_22_" gradientUnits="userSpaceOnUse" x1="55371.7031" y1="58367.4648" x2="55371.7031" y2="53900.5" gradientTransform="matrix(0.1 0 0 0.1 -2655 362.8901)">
		<stop  offset="0" style="stop-color:#00DF81"/>
		<stop  offset="1" style="stop-color:#2FA98C"/>
	</linearGradient>
	<path class="st21" d="M2862.6,3874.4c15.3-10.2,38.3-20.4,47.9-20.4c11.5,0,5.8,10.2-9.6,20.4c-15.3,10.2-36.4,20.4-47.9,20.4
		C2843.4,3894.8,2847.2,3884.6,2862.6,3874.4z"/>
	
		<linearGradient id="SVGID_23_" gradientUnits="userSpaceOnUse" x1="61623.7266" y1="58367.4648" x2="61623.7266" y2="53900.5" gradientTransform="matrix(0.1 0 0 0.1 -2655 362.8901)">
		<stop  offset="0" style="stop-color:#00DF81"/>
		<stop  offset="1" style="stop-color:#2FA98C"/>
	</linearGradient>
	<path class="st22" d="M3485.7,3590.8c-11.5-22.4,24.9-53,42.2-34.7c7.7,6.1,1.9,12.2-11.5,12.2s-17.3,10.2-11.5,20.4
		c5.8,12.2,7.7,20.4,1.9,20.4C3501,3609.2,3493.3,3601,3485.7,3590.8z"/>
	
		<linearGradient id="SVGID_24_" gradientUnits="userSpaceOnUse" x1="33677.2734" y1="58367.4648" x2="33677.2734" y2="53900.4844" gradientTransform="matrix(0.1 0 0 0.1 -2655 362.8901)">
		<stop  offset="0" style="stop-color:#00DF81"/>
		<stop  offset="1" style="stop-color:#2FA98C"/>
	</linearGradient>
	<path class="st23" d="M705.7,3484.8c-7.7-12.2-9.6-24.5-3.8-30.6c3.8-6.1,13.4,4.1,19.2,22.4C734.5,3511.3,723,3517.4,705.7,3484.8
		z"/>
	
		<linearGradient id="SVGID_25_" gradientUnits="userSpaceOnUse" x1="57917.3203" y1="58367.4648" x2="57917.3203" y2="53900.5" gradientTransform="matrix(0.1 0 0 0.1 -2655 362.8901)">
		<stop  offset="0" style="stop-color:#00DF81"/>
		<stop  offset="1" style="stop-color:#2FA98C"/>
	</linearGradient>
	<path class="st24" d="M3111.8,3458.3c0-4.1,13.4-14.3,30.7-20.4c15.3-6.1,23-4.1,17.3,8.2
		C3148.2,3466.4,3111.8,3474.6,3111.8,3458.3z"/>
	
		<linearGradient id="SVGID_26_" gradientUnits="userSpaceOnUse" x1="57543.8711" y1="58367.4648" x2="57543.8711" y2="53900.5" gradientTransform="matrix(0.1 0 0 0.1 -2655 362.8901)">
		<stop  offset="0" style="stop-color:#00DF81"/>
		<stop  offset="1" style="stop-color:#2FA98C"/>
	</linearGradient>
	<path class="st25" d="M3086.9,3403.2c13.4-14.3,28.8-20.4,34.5-14.3c5.8,6.1-3.8,18.4-23,24.5
		C3071.6,3425.6,3069.6,3423.6,3086.9,3403.2z"/>
	
		<linearGradient id="SVGID_27_" gradientUnits="userSpaceOnUse" x1="57972.2227" y1="58367.4648" x2="57972.2227" y2="53900.5" gradientTransform="matrix(0.1 0 0 0.1 -2655 362.8901)">
		<stop  offset="0" style="stop-color:#00DF81"/>
		<stop  offset="1" style="stop-color:#2FA98C"/>
	</linearGradient>
	<path class="st26" d="M3127.1,3207.4c13.4-6.1,30.7-4.1,36.4,2c7.7,6.1-3.8,12.2-24.9,10.2
		C3117.6,3219.6,3111.8,3213.5,3127.1,3207.4z"/>
	
		<linearGradient id="SVGID_28_" gradientUnits="userSpaceOnUse" x1="70797.3203" y1="58367.4648" x2="70797.3203" y2="53900.5" gradientTransform="matrix(0.1 0 0 0.1 -2655 362.8901)">
		<stop  offset="0" style="stop-color:#00DF81"/>
		<stop  offset="1" style="stop-color:#2FA98C"/>
	</linearGradient>
	<path class="st27" d="M4417.4,2434.3c0-22.4,5.8-28.6,11.5-12.2c5.8,14.3,3.8,32.6-1.9,38.8
		C4421.3,2469,4415.5,2456.8,4417.4,2434.3z"/>
	
		<linearGradient id="SVGID_29_" gradientUnits="userSpaceOnUse" x1="67212.3516" y1="58367.4648" x2="67212.3516" y2="53900.5" gradientTransform="matrix(0.1 0 0 0.1 -2655 362.8901)">
		<stop  offset="0" style="stop-color:#00DF81"/>
		<stop  offset="1" style="stop-color:#2FA98C"/>
	</linearGradient>
	<path class="st28" d="M4051.2,2061.1c0-12.2,7.7-26.5,19.2-32.6c11.5-6.1,13.4,2,7.7,18.4
		C4064.7,2083.5,4051.2,2089.6,4051.2,2061.1z"/>
	
		<linearGradient id="SVGID_30_" gradientUnits="userSpaceOnUse" x1="38480.0781" y1="58367.4648" x2="38480.0781" y2="53900.5" gradientTransform="matrix(0.1 0 0 0.1 -2655 362.8901)">
		<stop  offset="0" style="stop-color:#00DF81"/>
		<stop  offset="1" style="stop-color:#2FA98C"/>
	</linearGradient>
	<path class="st29" d="M1185,2018.2c5.8-12.2,1.9-20.4-11.5-20.4c-13.4,0-19.2-6.1-11.5-12.2c5.8-6.1,24.9-4.1,42.2,8.2
		c30.7,16.3,30.7,18.4,1.9,30.6C1186.9,2032.5,1177.3,2030.5,1185,2018.2z"/>
	
		<linearGradient id="SVGID_31_" gradientUnits="userSpaceOnUse" x1="72554.7813" y1="58367.4648" x2="72554.7813" y2="53900.5" gradientTransform="matrix(0.1 0 0 0.1 -2655 362.8901)">
		<stop  offset="0" style="stop-color:#00DF81"/>
		<stop  offset="1" style="stop-color:#2FA98C"/>
	</linearGradient>
	<path class="st30" d="M3936.2,1773.5c-38.3-24.5,47.9-46.9,116.9-30.6c34.5,8.2,55.6,6.1,49.8-2c-11.5-22.4,1150.3-22.4,1169.5,0
		c7.7,6.1-11.5,12.2-44.1,12.2c-55.6-2-713.2,14.3-1073.6,28.6C4047.4,1785.7,3949.6,1781.6,3936.2,1773.5z"/>
</g>
</svg>
